<svg xmlns="http://www.w3.org/2000/svg" xmlns:xlink="http://www.w3.org/1999/xlink" width="80" zoomAndPan="magnify" viewBox="0 0 60 30.000001" height="40" preserveAspectRatio="xMidYMid meet" version="1.0"><defs><g/><clipPath id="d97473b543"><path d="M 9.175781 9.308594 L 30.957031 9.308594 L 30.957031 19.609375 L 9.175781 19.609375 Z M 9.175781 9.308594 " clip-rule="nonzero"/></clipPath><clipPath id="2f17f19b1b"><path d="M 7.441406 6.683594 L 51.386719 6.683594 L 51.386719 22.34375 L 7.441406 22.34375 Z M 7.441406 6.683594 " clip-rule="nonzero"/></clipPath></defs><g clip-path="url(#d97473b543)"><path fill="#1298e5" d="M 9.175781 9.308594 L 30.941406 9.308594 L 30.941406 19.609375 L 9.175781 19.609375 Z M 9.175781 9.308594 " fill-opacity="1" fill-rule="nonzero"/></g><g fill="#ffffff" fill-opacity="1"><g transform="translate(12.532059, 16.064425)"><g><path d="M 1.65625 0.0625 C 1.375 0.0625 1.128906 0.015625 0.921875 -0.078125 C 0.722656 -0.171875 0.566406 -0.300781 0.453125 -0.46875 C 0.347656 -0.632812 0.296875 -0.832031 0.296875 -1.0625 L 0.734375 -1.0625 C 0.734375 -0.84375 0.816406 -0.664062 0.984375 -0.53125 C 1.160156 -0.40625 1.382812 -0.34375 1.65625 -0.34375 C 1.894531 -0.34375 2.085938 -0.390625 2.234375 -0.484375 C 2.378906 -0.585938 2.453125 -0.722656 2.453125 -0.890625 C 2.453125 -1.054688 2.378906 -1.1875 2.234375 -1.28125 C 2.097656 -1.375 1.875 -1.457031 1.5625 -1.53125 C 1.132812 -1.632812 0.820312 -1.765625 0.625 -1.921875 C 0.425781 -2.085938 0.328125 -2.300781 0.328125 -2.5625 C 0.328125 -2.851562 0.4375 -3.082031 0.65625 -3.25 C 0.882812 -3.425781 1.1875 -3.515625 1.5625 -3.515625 C 1.957031 -3.515625 2.265625 -3.414062 2.484375 -3.21875 C 2.710938 -3.03125 2.828125 -2.769531 2.828125 -2.4375 L 2.40625 -2.4375 C 2.40625 -2.644531 2.328125 -2.804688 2.171875 -2.921875 C 2.023438 -3.046875 1.820312 -3.109375 1.5625 -3.109375 C 1.320312 -3.109375 1.128906 -3.054688 0.984375 -2.953125 C 0.847656 -2.859375 0.78125 -2.726562 0.78125 -2.5625 C 0.78125 -2.425781 0.84375 -2.304688 0.96875 -2.203125 C 1.101562 -2.109375 1.335938 -2.019531 1.671875 -1.9375 C 2.109375 -1.832031 2.421875 -1.695312 2.609375 -1.53125 C 2.796875 -1.363281 2.890625 -1.15625 2.890625 -0.90625 C 2.890625 -0.601562 2.773438 -0.363281 2.546875 -0.1875 C 2.328125 -0.0195312 2.03125 0.0625 1.65625 0.0625 Z M 1.65625 0.0625 "/></g></g></g><g fill="#ffffff" fill-opacity="1"><g transform="translate(16.105174, 16.064425)"><g><path d="M 0.5 0 L 0.5 -3.453125 L 0.9375 -3.453125 L 0.9375 -1.96875 L 1.4375 -1.96875 C 1.664062 -1.96875 1.835938 -2.007812 1.953125 -2.09375 C 2.078125 -2.175781 2.171875 -2.3125 2.234375 -2.5 L 2.59375 -3.453125 L 3.0625 -3.453125 L 2.625 -2.328125 C 2.582031 -2.203125 2.523438 -2.085938 2.453125 -1.984375 C 2.378906 -1.890625 2.296875 -1.8125 2.203125 -1.75 L 3.1875 0 L 2.6875 0 L 1.796875 -1.578125 C 1.679688 -1.566406 1.5625 -1.5625 1.4375 -1.5625 L 0.9375 -1.5625 L 0.9375 0 Z M 0.5 0 "/></g></g></g><g fill="#ffffff" fill-opacity="1"><g transform="translate(19.861137, 16.064425)"><g><path d="M 0.5 0 L 0.5 -3.453125 L 0.9375 -3.453125 L 0.9375 0 Z M 0.5 0 "/></g></g></g><g fill="#ffffff" fill-opacity="1"><g transform="translate(21.679892, 16.064425)"><g><path d="M 0.5 0 L 0.5 -3.453125 L 0.9375 -3.453125 L 0.9375 -0.421875 L 2.609375 -0.421875 L 2.609375 0 Z M 0.5 0 "/></g></g></g><g fill="#ffffff" fill-opacity="1"><g transform="translate(24.828007, 16.064425)"><g><path d="M 0.5 0 L 0.5 -3.453125 L 0.9375 -3.453125 L 0.9375 -0.421875 L 2.609375 -0.421875 L 2.609375 0 Z M 0.5 0 "/></g></g></g><g fill="#1298e5" fill-opacity="1"><g transform="translate(33.287811, 16.091047)"><g><path d="M 1.609375 0.078125 C 1.160156 0.078125 0.804688 -0.0234375 0.546875 -0.234375 C 0.296875 -0.453125 0.171875 -0.75 0.171875 -1.125 L 1.140625 -1.125 C 1.140625 -0.988281 1.175781 -0.882812 1.25 -0.8125 C 1.332031 -0.738281 1.445312 -0.703125 1.59375 -0.703125 C 1.707031 -0.703125 1.800781 -0.722656 1.875 -0.765625 C 1.945312 -0.816406 1.984375 -0.882812 1.984375 -0.96875 C 1.984375 -1.164062 1.773438 -1.300781 1.359375 -1.375 C 0.585938 -1.53125 0.203125 -1.894531 0.203125 -2.46875 C 0.203125 -2.800781 0.316406 -3.0625 0.546875 -3.25 C 0.785156 -3.4375 1.109375 -3.53125 1.515625 -3.53125 C 1.796875 -3.53125 2.039062 -3.484375 2.25 -3.390625 C 2.457031 -3.296875 2.617188 -3.160156 2.734375 -2.984375 C 2.847656 -2.804688 2.90625 -2.597656 2.90625 -2.359375 L 1.96875 -2.359375 C 1.96875 -2.492188 1.929688 -2.59375 1.859375 -2.65625 C 1.785156 -2.726562 1.675781 -2.765625 1.53125 -2.765625 C 1.414062 -2.765625 1.320312 -2.738281 1.25 -2.6875 C 1.1875 -2.644531 1.15625 -2.582031 1.15625 -2.5 C 1.15625 -2.40625 1.203125 -2.328125 1.296875 -2.265625 C 1.390625 -2.210938 1.546875 -2.160156 1.765625 -2.109375 C 2.179688 -2.015625 2.484375 -1.878906 2.671875 -1.703125 C 2.867188 -1.523438 2.96875 -1.296875 2.96875 -1.015625 C 2.96875 -0.671875 2.847656 -0.398438 2.609375 -0.203125 C 2.367188 -0.015625 2.035156 0.078125 1.609375 0.078125 Z M 1.609375 0.078125 "/></g></g></g><g fill="#1298e5" fill-opacity="1"><g transform="translate(36.446438, 16.091047)"><g><path d="M 1.140625 0 L 0.03125 -3.453125 L 1.078125 -3.453125 L 1.328125 -2.6875 L 1.671875 -1.609375 L 2.03125 -2.6875 L 2.28125 -3.453125 L 3.234375 -3.453125 L 3.84375 -1.578125 L 4.203125 -2.6875 L 4.4375 -3.453125 L 5.484375 -3.453125 L 4.375 0 L 3.375 0 L 2.75 -1.921875 L 2.125 0 Z M 1.140625 0 "/></g></g></g><g fill="#1298e5" fill-opacity="1"><g transform="translate(41.962912, 16.091047)"><g><path d="M 0.03125 0 L 1.375 -3.453125 L 2.359375 -3.453125 L 3.703125 0 L 2.640625 0 L 2.453125 -0.484375 L 1.265625 -0.484375 L 1.078125 0 Z M 1.46875 -1.21875 L 2.25 -1.21875 L 1.859375 -2.296875 Z M 1.46875 -1.21875 "/></g></g></g><g fill="#1298e5" fill-opacity="1"><g transform="translate(45.689992, 16.091047)"><g><path d="M 0.359375 0 L 0.359375 -3.453125 L 1.828125 -3.453125 C 2.117188 -3.453125 2.367188 -3.398438 2.578125 -3.296875 C 2.796875 -3.191406 2.960938 -3.039062 3.078125 -2.84375 C 3.203125 -2.65625 3.265625 -2.425781 3.265625 -2.15625 C 3.265625 -1.894531 3.203125 -1.664062 3.078125 -1.46875 C 2.960938 -1.269531 2.796875 -1.117188 2.578125 -1.015625 C 2.367188 -0.910156 2.117188 -0.859375 1.828125 -0.859375 L 1.359375 -0.859375 L 1.359375 0 Z M 1.359375 -1.6875 L 1.734375 -1.6875 C 1.890625 -1.6875 2.015625 -1.726562 2.109375 -1.8125 C 2.203125 -1.894531 2.25 -2.007812 2.25 -2.15625 C 2.25 -2.300781 2.203125 -2.410156 2.109375 -2.484375 C 2.015625 -2.566406 1.890625 -2.609375 1.734375 -2.609375 L 1.359375 -2.609375 Z M 1.359375 -1.6875 "/></g></g></g><g clip-path="url(#2f17f19b1b)"><path stroke-linecap="butt" transform="matrix(0.725806, 0, 0, 0.725806, 7.440395, 6.682638)" fill="none" stroke-linejoin="miter" d="M 0.0013932 0.00131747 L 60.548265 0.00131747 L 60.548265 21.577532 L 0.0013932 21.577532 Z M 0.0013932 0.00131747 " stroke="#1298e5" stroke-width="1" stroke-opacity="1" stroke-miterlimit="4"/></g></svg>